# xmcd
# Copyright (C) 1995-1998 Ti Kan
#
# Track frame offsets:
#       150
#       14644
#       31513
#       48456
#
# Disc length: 867 seconds
#
# Revision: 0
# Processed by: cddbd v1.4PL0 Copyright (c) Steve Scherf et al.
# Submitted via: CD-Transfer v1.0
#
DISCID=27036104
DTITLE=Smashing Potatoes - Frau Stirnimaa
DYEAR=2003
DGENRE=
TTITLE0=Frau Stirnimaa
TTITLE1=Enjoy The Silence
TTITLE2=Word Up
TTITLE3=Sing
EXTD=
EXTT0=
EXTT1=
EXTT2=
EXTT3=
PLAYORDER=
